<svg width="636" height="636" viewBox="0 0 636 636" fill="none" xmlns="http://www.w3.org/2000/svg">
<path d="M378.671 295.627C401.518 311.12 417.802 328.093 427.521 346.547C439.077 368.486 441.003 393.833 433.299 422.586C426.871 446.575 415.282 465.835 398.534 480.366C381.784 494.897 360.773 503.971 335.502 507.59C310.274 511.044 282.052 508.589 250.834 500.224C233.417 495.557 216.046 489.406 198.721 481.77C184.243 475.39 171.285 468.616 159.846 461.451C155.869 458.96 154.087 454.135 155.302 449.602L171.605 388.758C173.54 381.536 181.972 378.295 188.444 382.039C198.47 387.841 209.396 393.421 221.222 398.78C238.547 406.416 255.261 412.391 271.363 416.705C289.601 421.592 303.28 422.792 312.399 420.304C321.563 417.653 327.289 412.055 329.578 403.511C330.811 398.911 330.695 394.741 329.232 391.003C328.192 387.808 325.88 384.394 322.301 380.76C349.132 379.785 373.336 361.537 380.648 334.25C384.205 320.975 383.229 307.553 378.671 295.627ZM396.067 137.626C412.169 141.94 427.29 146.961 441.429 152.686C452.565 157.178 462.599 161.803 471.529 166.558C475.912 168.891 477.989 173.975 476.704 178.771L460.441 239.465C458.537 246.569 450.313 249.861 443.779 246.484C437.246 243.107 430.112 239.812 422.377 236.601C409.224 231.14 395.912 226.604 382.439 222.994C358.614 216.61 341.172 214.666 330.113 217.162C319.055 219.658 312.381 225.178 310.091 233.722C308.991 237.83 308.948 241.605 309.963 245.047C310.909 248.255 313.18 251.665 316.773 255.277C290.313 256.633 266.58 274.776 259.353 301.749C255.803 314.997 256.767 328.392 261.302 340.299C238.518 325.21 222.106 307.786 212.068 288.024C201.05 266.052 199.305 241.018 206.833 212.922C216.827 175.625 237.802 150.251 269.758 136.801C301.879 123.395 343.982 123.67 396.067 137.626Z" fill="currentColor"/>
<circle cx="320.001" cy="318.001" r="37.6003" transform="rotate(15 320.001 318.001)" fill="currentColor"/>
</svg>
